<svg width="138" height="113" viewBox="0 0 138 113" fill="none" xmlns="http://www.w3.org/2000/svg">
<g clip-path="url(#clip0_26_271)">
<path d="M94.4866 62.0878C118.518 62.0878 138 52.4977 138 40.6675C138 28.8374 118.518 19.2473 94.4866 19.2473C70.4547 19.2473 50.973 28.8374 50.973 40.6675C50.973 52.4977 70.4547 62.0878 94.4866 62.0878Z" fill="#00DC72"/>
<path d="M94.4866 99.3406C118.518 99.3406 138 89.7505 138 77.9204C138 66.0903 118.518 56.5001 94.4866 56.5001C70.4547 56.5001 50.973 66.0903 50.973 77.9204C50.973 89.7505 70.4547 99.3406 94.4866 99.3406Z" fill="#00DC72"/>
<path d="M101.324 0V9.99317C101.324 11.6329 100.543 12.8627 98.9788 13.6826C97.5713 14.4 95.6172 14.9642 93.1149 15.3742L83.4999 16.6343V71.6429C83.4999 79.9444 81.3102 87.2223 76.9323 93.4739C72.7101 99.6232 66.2992 104.442 57.6993 107.926C49.2557 111.309 38.4659 113 25.3315 113C17.3569 113 8.91274 112.333 0 111.001L1.87669 97.1647C2.34579 94.397 4.92611 93.0135 9.61707 93.0135C10.3983 93.0135 11.0233 93.0647 11.4922 93.167C12.1176 93.167 13.2908 93.2693 15.0104 93.4739C16.5741 93.6793 17.8256 93.8328 18.7638 93.9358H20.8741C30.4124 93.9358 37.1367 92.2439 41.0459 88.8615C45.1111 85.4792 47.1447 79.8941 47.1447 72.1044V16.6654L37.2925 15.3742C34.7908 14.9642 32.836 14.4 31.4288 13.6826C30.0218 12.8627 29.3186 11.6328 29.3184 9.99317V0H101.324Z" fill="#169156"/>
<path d="M103.024 0H26.8946C22.6838 0 19.2703 3.41837 19.2703 7.63514V9.12857C19.2703 13.3453 22.6838 16.7637 26.8946 16.7637H103.024C107.235 16.7637 110.648 13.3453 110.648 9.12857V7.63514C110.648 3.41837 107.235 0 103.024 0Z" fill="#169156"/>
</g>
<defs>
<clipPath id="clip0_26_271">
<rect width="138" height="113" fill="white"/>
</clipPath>
</defs>
</svg>
