<svg width="301" height="84" viewBox="0 0 301 84" fill="none" xmlns="http://www.w3.org/2000/svg">
<g clip-path="url(#clip0_107_153)">
<path d="M36.973 38.1758C46.3768 38.1758 54 34.4416 54 29.8352C54 25.2287 46.3768 21.4945 36.973 21.4945C27.5692 21.4945 19.946 25.2287 19.946 29.8352C19.946 34.4416 27.5692 38.1758 36.973 38.1758Z" fill="#00DC72"/>
<path d="M36.973 52.6813C46.3768 52.6813 54 48.9471 54 44.3406C54 39.7342 46.3768 36 36.973 36C27.5692 36 19.946 39.7342 19.946 44.3406C19.946 48.9471 27.5692 52.6813 36.973 52.6813Z" fill="#00DC72"/>
<path d="M39.6485 14V17.8911C39.6485 18.5296 39.3427 19.0085 38.7308 19.3277C38.1801 19.6071 37.4154 19.8268 36.4363 19.9864L32.6739 20.4771V41.8964C32.6739 45.1288 31.817 47.9626 30.104 50.3969C28.4518 52.7914 25.9432 54.6676 22.578 56.0245C19.274 57.3415 15.0519 58 9.91231 58C6.79183 58 3.48759 57.7405 0 57.2217L0.734355 51.8341C0.917916 50.7564 1.92761 50.2176 3.7632 50.2176C4.06888 50.2176 4.31347 50.2376 4.49695 50.2774C4.74168 50.2774 5.20074 50.3172 5.87365 50.3969C6.48552 50.4769 6.97525 50.5366 7.34236 50.5768H8.16814C11.9005 50.5768 14.5318 49.918 16.0614 48.6009C17.6522 47.2839 18.4479 45.1092 18.4479 42.076V20.4892L14.5927 19.9864C13.6138 19.8268 12.8489 19.6071 12.2982 19.3277C11.7477 19.0085 11.4725 18.5296 11.4724 17.8911V14H39.6485Z" fill="#169156"/>
<path d="M40.3138 14H10.524C8.87627 14 7.54054 15.331 7.54054 16.973V17.5545C7.54054 19.1964 8.87627 20.5275 10.524 20.5275H40.3138C41.9615 20.5275 43.2972 19.1964 43.2972 17.5545V16.973C43.2972 15.331 41.9615 14 40.3138 14Z" fill="#169156"/>
</g>
<path d="M75 28.76C75.2933 28.7067 75.76 28.64 76.4 28.56C77.04 28.4533 77.6533 28.4 78.24 28.4C78.8533 28.4 79.3867 28.4533 79.84 28.56C80.32 28.64 80.72 28.8 81.04 29.04C81.36 29.28 81.6 29.6133 81.76 30.04C81.92 30.4667 82 31.0267 82 31.72V46.52C82 48.8933 81.32 50.68 79.96 51.88C78.6 53.0533 76.6 53.64 73.96 53.64C72.5733 53.64 71.4533 53.4267 70.6 53C69.9867 52.7067 69.5333 52.3067 69.24 51.8C68.9733 51.2933 68.84 50.72 68.84 50.08C68.84 49.5467 68.9067 49.08 69.04 48.68C69.2 48.28 69.3867 47.96 69.6 47.72C70.1067 47.8267 70.5333 47.9067 70.88 47.96C71.2533 47.9867 71.6533 48 72.08 48C73.12 48 73.8667 47.7467 74.32 47.24C74.7733 46.7067 75 45.9333 75 44.92V28.76ZM85.7644 33.84C86.031 33.76 86.4444 33.68 87.0044 33.6C87.591 33.52 88.191 33.48 88.8044 33.48C89.391 33.48 89.911 33.52 90.3644 33.6C90.8444 33.68 91.2444 33.84 91.5644 34.08C91.8844 34.32 92.1244 34.6533 92.2844 35.08C92.471 35.48 92.5644 36.0133 92.5644 36.68V45.28C92.5644 46.3733 92.831 47.16 93.3644 47.64C93.8977 48.0933 94.671 48.32 95.6844 48.32C96.2977 48.32 96.791 48.2667 97.1644 48.16C97.5644 48.0533 97.871 47.9467 98.0844 47.84V33.84C98.351 33.76 98.7644 33.68 99.3244 33.6C99.911 33.52 100.511 33.48 101.124 33.48C101.711 33.48 102.231 33.52 102.684 33.6C103.164 33.68 103.564 33.84 103.884 34.08C104.204 34.32 104.444 34.6533 104.604 35.08C104.791 35.48 104.884 36.0133 104.884 36.68V48.84C104.884 50.1733 104.324 51.1733 103.204 51.84C102.271 52.4267 101.151 52.8667 99.8444 53.16C98.5644 53.48 97.1644 53.64 95.6444 53.64C94.2044 53.64 92.871 53.48 91.6444 53.16C90.4444 52.84 89.4044 52.3467 88.5244 51.68C87.6444 51.0133 86.9644 50.16 86.4844 49.12C86.0044 48.0533 85.7644 46.7733 85.7644 45.28V33.84ZM120.566 40.68C120.566 39.8533 120.326 39.2533 119.846 38.88C119.392 38.48 118.766 38.28 117.966 38.28C117.432 38.28 116.899 38.3467 116.366 38.48C115.859 38.6133 115.419 38.8133 115.046 39.08V52.96C114.779 53.04 114.352 53.12 113.766 53.2C113.206 53.28 112.619 53.32 112.006 53.32C111.419 53.32 110.886 53.28 110.406 53.2C109.952 53.12 109.566 52.96 109.246 52.72C108.926 52.48 108.672 52.16 108.486 51.76C108.326 51.3333 108.246 50.7867 108.246 50.12V38.12C108.246 37.4 108.392 36.8133 108.686 36.36C109.006 35.9067 109.432 35.4933 109.966 35.12C110.872 34.48 112.006 33.96 113.366 33.56C114.752 33.16 116.286 32.96 117.966 32.96C120.979 32.96 123.299 33.6267 124.926 34.96C126.552 36.2667 127.366 38.0933 127.366 40.44V52.96C127.099 53.04 126.672 53.12 126.086 53.2C125.526 53.28 124.939 53.32 124.326 53.32C123.739 53.32 123.206 53.28 122.726 53.2C122.272 53.12 121.886 52.96 121.566 52.72C121.246 52.48 120.992 52.16 120.806 51.76C120.646 51.3333 120.566 50.7867 120.566 50.12V40.68ZM140.246 32.96C141.766 32.96 143.139 33.16 144.366 33.56C145.619 33.9333 146.673 34.4267 147.526 35.04C148.059 35.4133 148.473 35.8267 148.766 36.28C149.086 36.7333 149.246 37.32 149.246 38.04V52.04C149.246 53.4533 148.979 54.6667 148.446 55.68C147.913 56.72 147.179 57.5733 146.246 58.24C145.339 58.9333 144.259 59.44 143.006 59.76C141.779 60.08 140.459 60.24 139.046 60.24C136.619 60.24 134.713 59.9067 133.326 59.24C131.939 58.6 131.246 57.5467 131.246 56.08C131.246 55.4667 131.366 54.92 131.606 54.44C131.873 53.9867 132.166 53.64 132.486 53.4C133.259 53.8267 134.126 54.1867 135.086 54.48C136.073 54.7733 137.086 54.92 138.126 54.92C139.566 54.92 140.713 54.68 141.566 54.2C142.419 53.72 142.846 52.9467 142.846 51.88V51.24C141.753 51.72 140.419 51.96 138.846 51.96C137.646 51.96 136.499 51.7867 135.406 51.44C134.339 51.0667 133.393 50.5067 132.566 49.76C131.766 48.9867 131.113 48 130.606 46.8C130.126 45.6 129.886 44.1733 129.886 42.52C129.886 40.8933 130.139 39.48 130.646 38.28C131.179 37.08 131.899 36.0933 132.806 35.32C133.739 34.52 134.833 33.9333 136.086 33.56C137.366 33.16 138.753 32.96 140.246 32.96ZM142.726 38.76C142.539 38.6533 142.259 38.5467 141.886 38.44C141.539 38.3333 141.099 38.28 140.566 38.28C139.259 38.28 138.273 38.6533 137.606 39.4C136.966 40.12 136.646 41.16 136.646 42.52C136.646 44.0667 136.966 45.1867 137.606 45.88C138.273 46.5467 139.113 46.88 140.126 46.88C141.219 46.88 142.086 46.6267 142.726 46.12V38.76ZM159.581 52.96C159.288 53.0133 158.848 53.08 158.261 53.16C157.701 53.2667 157.128 53.32 156.541 53.32C155.955 53.32 155.421 53.28 154.941 53.2C154.488 53.12 154.101 52.96 153.781 52.72C153.461 52.48 153.208 52.16 153.021 51.76C152.861 51.3333 152.781 50.7867 152.781 50.12V26.92C153.075 26.8667 153.501 26.8 154.061 26.72C154.648 26.6133 155.235 26.56 155.821 26.56C156.408 26.56 156.928 26.6 157.381 26.68C157.861 26.76 158.261 26.92 158.581 27.16C158.901 27.4 159.141 27.7333 159.301 28.16C159.488 28.56 159.581 29.0933 159.581 29.76V52.96ZM173.352 53.64C171.779 53.64 170.312 53.4267 168.952 53C167.619 52.5467 166.446 51.88 165.432 51C164.446 50.12 163.659 49.0133 163.072 47.68C162.512 46.3467 162.232 44.7867 162.232 43C162.232 41.24 162.512 39.7333 163.072 38.48C163.659 37.2 164.419 36.16 165.352 35.36C166.286 34.5333 167.352 33.9333 168.552 33.56C169.752 33.16 170.979 32.96 172.232 32.96C173.646 32.96 174.926 33.1733 176.072 33.6C177.246 34.0267 178.246 34.6133 179.072 35.36C179.926 36.1067 180.579 37 181.032 38.04C181.512 39.08 181.752 40.2133 181.752 41.44C181.752 42.3467 181.499 43.04 180.992 43.52C180.486 44 179.779 44.3067 178.872 44.44L168.992 45.92C169.286 46.8 169.886 47.4667 170.792 47.92C171.699 48.3467 172.739 48.56 173.912 48.56C175.006 48.56 176.032 48.4267 176.992 48.16C177.979 47.8667 178.779 47.5333 179.392 47.16C179.819 47.4267 180.179 47.8 180.472 48.28C180.766 48.76 180.912 49.2667 180.912 49.8C180.912 51 180.352 51.8933 179.232 52.48C178.379 52.9333 177.419 53.24 176.352 53.4C175.286 53.56 174.286 53.64 173.352 53.64ZM172.232 37.92C171.592 37.92 171.032 38.0267 170.552 38.24C170.099 38.4533 169.726 38.7333 169.432 39.08C169.139 39.4 168.912 39.7733 168.752 40.2C168.619 40.6 168.539 41.0133 168.512 41.44L175.352 40.32C175.272 39.7867 174.979 39.2533 174.472 38.72C173.966 38.1867 173.219 37.92 172.232 37.92ZM184.305 26.96C184.572 26.88 184.999 26.8 185.585 26.72C186.172 26.6133 186.772 26.56 187.385 26.56C187.972 26.56 188.492 26.6 188.945 26.68C189.425 26.76 189.825 26.92 190.145 27.16C190.465 27.4 190.705 27.7333 190.865 28.16C191.025 28.56 191.105 29.0933 191.105 29.76V33.68C191.772 33.4133 192.399 33.2267 192.985 33.12C193.599 33.0133 194.265 32.96 194.985 32.96C196.265 32.96 197.479 33.1867 198.625 33.64C199.772 34.0933 200.785 34.76 201.665 35.64C202.545 36.4933 203.239 37.56 203.745 38.84C204.252 40.12 204.505 41.6 204.505 43.28C204.505 45.0133 204.239 46.5333 203.705 47.84C203.199 49.12 202.479 50.1867 201.545 51.04C200.612 51.8933 199.465 52.5467 198.105 53C196.772 53.4267 195.292 53.64 193.665 53.64C191.905 53.64 190.412 53.4267 189.185 53C187.959 52.6 186.919 52.0933 186.065 51.48C184.892 50.6533 184.305 49.5867 184.305 48.28V26.96ZM193.665 48.28C194.892 48.28 195.839 47.8667 196.505 47.04C197.199 46.1867 197.545 44.9333 197.545 43.28C197.545 41.6 197.199 40.3467 196.505 39.52C195.812 38.6933 194.879 38.28 193.705 38.28C193.172 38.28 192.705 38.3333 192.305 38.44C191.932 38.5467 191.519 38.7067 191.065 38.92V47.64C191.359 47.8267 191.705 47.9867 192.105 48.12C192.532 48.2267 193.052 48.28 193.665 48.28ZM227.139 43.28C227.139 44.9333 226.886 46.4133 226.379 47.72C225.872 49 225.152 50.08 224.219 50.96C223.312 51.84 222.219 52.5067 220.939 52.96C219.659 53.4133 218.232 53.64 216.659 53.64C215.086 53.64 213.659 53.4 212.379 52.92C211.099 52.44 209.992 51.76 209.059 50.88C208.152 49.9733 207.446 48.88 206.939 47.6C206.432 46.32 206.179 44.88 206.179 43.28C206.179 41.7067 206.432 40.28 206.939 39C207.446 37.72 208.152 36.64 209.059 35.76C209.992 34.8533 211.099 34.16 212.379 33.68C213.659 33.2 215.086 32.96 216.659 32.96C218.232 32.96 219.659 33.2133 220.939 33.72C222.219 34.2 223.312 34.8933 224.219 35.8C225.152 36.68 225.872 37.76 226.379 39.04C226.886 40.32 227.139 41.7333 227.139 43.28ZM213.139 43.28C213.139 44.9067 213.446 46.16 214.059 47.04C214.699 47.8933 215.579 48.32 216.699 48.32C217.819 48.32 218.672 47.88 219.259 47C219.872 46.12 220.179 44.88 220.179 43.28C220.179 41.68 219.872 40.4533 219.259 39.6C218.646 38.72 217.779 38.28 216.659 38.28C215.539 38.28 214.672 38.72 214.059 39.6C213.446 40.4533 213.139 41.68 213.139 43.28ZM249.777 43.28C249.777 44.9333 249.523 46.4133 249.017 47.72C248.51 49 247.79 50.08 246.857 50.96C245.95 51.84 244.857 52.5067 243.577 52.96C242.297 53.4133 240.87 53.64 239.297 53.64C237.723 53.64 236.297 53.4 235.017 52.92C233.737 52.44 232.63 51.76 231.697 50.88C230.79 49.9733 230.083 48.88 229.577 47.6C229.07 46.32 228.817 44.88 228.817 43.28C228.817 41.7067 229.07 40.28 229.577 39C230.083 37.72 230.79 36.64 231.697 35.76C232.63 34.8533 233.737 34.16 235.017 33.68C236.297 33.2 237.723 32.96 239.297 32.96C240.87 32.96 242.297 33.2133 243.577 33.72C244.857 34.2 245.95 34.8933 246.857 35.8C247.79 36.68 248.51 37.76 249.017 39.04C249.523 40.32 249.777 41.7333 249.777 43.28ZM235.777 43.28C235.777 44.9067 236.083 46.16 236.697 47.04C237.337 47.8933 238.217 48.32 239.337 48.32C240.457 48.32 241.31 47.88 241.897 47C242.51 46.12 242.817 44.88 242.817 43.28C242.817 41.68 242.51 40.4533 241.897 39.6C241.283 38.72 240.417 38.28 239.297 38.28C238.177 38.28 237.31 38.72 236.697 39.6C236.083 40.4533 235.777 41.68 235.777 43.28ZM271.294 49.48C271.161 50.7333 270.787 51.6933 270.174 52.36C269.587 53.0267 268.721 53.36 267.574 53.36C266.721 53.36 265.961 53.16 265.294 52.76C264.627 52.3333 263.907 51.6267 263.134 50.64L259.174 45.68V52.96C258.881 53.0133 258.441 53.08 257.854 53.16C257.294 53.2667 256.721 53.32 256.134 53.32C255.547 53.32 255.014 53.28 254.534 53.2C254.081 53.12 253.694 52.96 253.374 52.72C253.054 52.48 252.801 52.16 252.614 51.76C252.454 51.3333 252.374 50.7867 252.374 50.12V26.96C252.667 26.88 253.094 26.8 253.654 26.72C254.241 26.6133 254.827 26.56 255.414 26.56C256.001 26.56 256.521 26.6 256.974 26.68C257.454 26.76 257.854 26.92 258.174 27.16C258.494 27.4 258.734 27.7333 258.894 28.16C259.081 28.56 259.174 29.0933 259.174 29.76V40.32L266.054 33.28C267.441 33.28 268.547 33.5867 269.374 34.2C270.227 34.8133 270.654 35.5867 270.654 36.52C270.654 36.92 270.587 37.2933 270.454 37.64C270.321 37.96 270.107 38.2933 269.814 38.64C269.547 38.9867 269.187 39.36 268.734 39.76C268.307 40.1333 267.801 40.5733 267.214 41.08L264.894 43.08L271.294 49.48Z" fill="#00DC72"/>
<defs>
<clipPath id="clip0_107_153">
<rect width="54" height="44" fill="white" transform="translate(0 14)"/>
</clipPath>
</defs>
</svg>
