<svg width="321" height="113" viewBox="0 0 321 113" fill="none" xmlns="http://www.w3.org/2000/svg">
<path d="M88.0951 63.0229C110.501 63.0229 128.665 54.1096 128.665 43.1145C128.665 32.1195 110.501 23.2062 88.0951 23.2062C65.6889 23.2062 47.525 32.1195 47.525 43.1145C47.525 54.1096 65.6889 63.0229 88.0951 63.0229Z" fill="#00DC72"/>
<path d="M88.0951 97.6461C110.501 97.6461 128.665 88.7328 128.665 77.7377C128.665 66.7427 110.501 57.8294 88.0951 57.8294C65.6889 57.8294 47.525 66.7427 47.525 77.7377C47.525 88.7328 65.6889 97.6461 88.0951 97.6461Z" fill="#00DC72"/>
<path d="M94.4704 5.31766V14.6055C94.4703 16.1294 93.7414 17.2724 92.2836 18.0344C90.9715 18.7012 89.1491 19.2256 86.8166 19.6066L77.8515 20.7778V71.9035C77.8515 79.6193 75.81 86.3828 71.7281 92.1935C67.7919 97.9091 61.8145 102.387 53.7964 105.626C45.924 108.769 35.8641 110.341 23.6179 110.341C16.1828 110.341 8.30985 109.722 0 108.483L1.74974 95.6234C2.18711 93.0514 4.5929 91.7656 8.96654 91.7656C9.69489 91.7656 10.2777 91.8128 10.7149 91.908C11.298 91.908 12.3917 92.003 13.9951 92.1935C15.453 92.384 16.6198 92.5271 17.4946 92.6224H19.4621C28.3552 92.6224 34.6246 91.0504 38.2694 87.9068C42.0596 84.7633 43.9556 79.5718 43.9556 72.3322V20.8066L34.7699 19.6066C32.4374 19.2256 30.6149 18.7012 29.3028 18.0344C27.9911 17.2724 27.3354 16.1294 27.3353 14.6055V5.31766H94.4704Z" fill="#169156"/>
<path d="M95.3911 5.31766H25.7395C21.4467 5.31766 17.9667 8.80545 17.9667 13.1079V13.1079C17.9667 17.4103 21.4467 20.8981 25.7395 20.8981H95.3911C99.684 20.8981 103.164 17.4103 103.164 13.1079C103.164 8.80545 99.684 5.31766 95.3911 5.31766Z" fill="#169156"/>
<path d="M148.562 12.3104C148.951 12.2395 149.57 12.1508 150.419 12.0445C151.268 11.9027 152.081 11.8318 152.86 11.8318C153.673 11.8318 154.381 11.9027 154.982 12.0445C155.619 12.1508 156.149 12.3635 156.574 12.6826C156.998 13.0017 157.317 13.4447 157.529 14.012C157.741 14.5793 157.847 15.3237 157.847 16.2454V35.9207C157.847 39.0758 156.945 41.4511 155.141 43.0464C153.337 44.6062 150.684 45.3861 147.182 45.3861C145.343 45.3861 143.857 45.1026 142.726 44.5353C141.913 44.1454 141.31 43.6136 140.922 42.94C140.567 42.2664 140.391 41.5042 140.391 40.6534C140.391 39.9444 140.48 39.324 140.656 38.7922C140.869 38.2605 141.117 37.8351 141.399 37.516C142.072 37.6579 142.637 37.7642 143.097 37.8351C143.592 37.8706 144.122 37.8882 144.689 37.8882C146.068 37.8882 147.059 37.5515 147.66 36.8779C148.261 36.1689 148.562 35.1407 148.562 33.7937V12.3104ZM162.84 19.0638C163.194 18.9574 163.742 18.8511 164.485 18.7447C165.263 18.6384 166.059 18.5852 166.872 18.5852C167.651 18.5852 168.341 18.6384 168.941 18.7447C169.578 18.8511 170.109 19.0638 170.533 19.3828C170.958 19.7019 171.276 20.145 171.488 20.7122C171.736 21.244 171.86 21.953 171.86 22.8393V34.2722C171.86 35.7257 172.214 36.7715 172.921 37.4097C173.629 38.0123 174.655 38.3137 175.998 38.3137C176.813 38.3137 177.467 38.2428 177.961 38.1009C178.492 37.9591 178.899 37.8174 179.182 37.6755V19.0638C179.536 18.9574 180.084 18.8511 180.826 18.7447C181.605 18.6384 182.401 18.5852 183.214 18.5852C183.993 18.5852 184.682 18.6384 185.283 18.7447C185.92 18.8511 186.451 19.0638 186.875 19.3828C187.3 19.7019 187.618 20.145 187.83 20.7122C188.078 21.244 188.202 21.953 188.202 22.8393V39.0049C188.202 40.7775 187.459 42.1069 185.973 42.9932C184.735 43.7731 183.25 44.3581 181.516 44.748C179.818 45.1734 177.961 45.3861 175.945 45.3861C174.035 45.3861 172.267 45.1734 170.639 44.748C169.048 44.3226 167.668 43.6668 166.501 42.7805C165.334 41.8942 164.432 40.7598 163.795 39.3772C163.158 37.9591 162.84 36.2575 162.84 34.2722V19.0638ZM209.003 28.1569C209.003 27.0579 208.684 26.2603 208.048 25.764C207.446 25.2322 206.615 24.9664 205.554 24.9664C204.846 24.9664 204.139 25.055 203.432 25.2322C202.759 25.4095 202.176 25.6753 201.681 26.0299V44.4821C201.327 44.5885 200.76 44.6948 199.983 44.8012C199.24 44.9075 198.462 44.9607 197.648 44.9607C196.87 44.9607 196.163 44.9075 195.526 44.8012C194.924 44.6948 194.412 44.4821 193.987 44.1631C193.563 43.844 193.226 43.4186 192.979 42.8868C192.767 42.3196 192.661 41.5929 192.661 40.7066V24.7537C192.661 23.7965 192.855 23.0165 193.245 22.4139C193.669 21.8113 194.234 21.2617 194.943 20.7654C196.144 19.9146 197.648 19.2233 199.452 18.6915C201.291 18.1598 203.326 17.8939 205.554 17.8939C209.551 17.8939 212.628 18.7802 214.786 20.5527C216.943 22.2899 218.023 24.7182 218.023 27.8379V44.4821C217.669 44.5885 217.102 44.6948 216.325 44.8012C215.582 44.9075 214.803 44.9607 213.99 44.9607C213.212 44.9607 212.505 44.9075 211.868 44.8012C211.266 44.6948 210.754 44.4821 210.329 44.1631C209.905 43.844 209.568 43.4186 209.321 42.8868C209.109 42.3196 209.003 41.5929 209.003 40.7066V28.1569ZM235.107 17.8939C237.123 17.8939 238.945 18.1598 240.572 18.6915C242.234 19.1878 243.632 19.8437 244.764 20.6591C245.471 21.1553 246.02 21.7049 246.409 22.3075C246.833 22.9102 247.045 23.6901 247.045 24.6473V43.2591C247.045 45.1379 246.691 46.751 245.984 48.0981C245.277 49.4807 244.304 50.6151 243.066 51.5014C241.863 52.4231 240.43 53.0967 238.768 53.5221C237.141 53.9475 235.39 54.1602 233.516 54.1602C230.296 54.1602 227.768 53.7171 225.928 52.8308C224.089 51.98 223.169 50.5797 223.169 48.6299C223.169 47.8146 223.328 47.0878 223.647 46.4497C224.001 45.847 224.39 45.3861 224.814 45.0671C225.839 45.6343 226.989 46.1129 228.263 46.5028C229.572 46.8927 230.916 47.0878 232.295 47.0878C234.205 47.0878 235.727 46.7687 236.858 46.1306C237.99 45.4925 238.556 44.4644 238.556 43.0464V42.1955C237.106 42.8337 235.337 43.1527 233.25 43.1527C231.659 43.1527 230.137 42.9223 228.687 42.4614C227.272 41.9651 226.017 41.2207 224.92 40.228C223.859 39.2 222.993 37.8882 222.32 36.2929C221.684 34.6977 221.365 32.801 221.365 30.6031C221.365 28.4405 221.701 26.5617 222.373 24.9664C223.08 23.3711 224.035 22.0593 225.239 21.0313C226.476 19.9678 227.927 19.1878 229.589 18.6915C231.287 18.1598 233.127 17.8939 235.107 17.8939ZM238.397 25.6045C238.149 25.4626 237.777 25.3209 237.283 25.1791C236.822 25.0372 236.239 24.9664 235.532 24.9664C233.798 24.9664 232.49 25.4626 231.605 26.4553C230.757 27.4125 230.332 28.7951 230.332 30.6031C230.332 32.6593 230.757 34.1482 231.605 35.0699C232.49 35.9562 233.604 36.3993 234.948 36.3993C236.398 36.3993 237.548 36.0626 238.397 35.3889V25.6045ZM260.754 44.4821C260.365 44.553 259.782 44.6417 259.003 44.748C258.26 44.8899 257.5 44.9607 256.722 44.9607C255.944 44.9607 255.236 44.9075 254.599 44.8012C253.999 44.6948 253.485 44.4821 253.061 44.1631C252.636 43.844 252.301 43.4186 252.053 42.8868C251.84 42.3196 251.734 41.5929 251.734 40.7066V9.86424C252.124 9.79334 252.689 9.70471 253.432 9.59836C254.211 9.45655 254.989 9.38565 255.767 9.38565C256.545 9.38565 257.235 9.43883 257.836 9.54518C258.473 9.65153 259.003 9.86424 259.428 10.1833C259.852 10.5024 260.17 10.9455 260.383 11.5127C260.631 12.0445 260.754 12.7535 260.754 13.6398V44.4821ZM279.021 45.3861C276.934 45.3861 274.988 45.1026 273.184 44.5353C271.416 43.9327 269.86 43.0464 268.515 41.8765C267.207 40.7066 266.163 39.2353 265.385 37.4628C264.642 35.6903 264.271 33.6164 264.271 31.2412C264.271 28.9014 264.642 26.8984 265.385 25.2322C266.163 23.5306 267.171 22.148 268.409 21.0845C269.648 19.9854 271.062 19.1878 272.654 18.6915C274.245 18.1598 275.873 17.8939 277.535 17.8939C279.411 17.8939 281.108 18.1775 282.629 18.7447C284.186 19.312 285.512 20.0918 286.608 21.0845C287.741 22.0771 288.607 23.2647 289.208 24.6473C289.844 26.0299 290.163 27.5365 290.163 29.1673C290.163 30.3727 289.827 31.2944 289.155 31.9325C288.484 32.5706 287.546 32.9783 286.343 33.1555L273.237 35.1231C273.627 36.2929 274.423 37.1793 275.625 37.7819C276.828 38.3491 278.208 38.6327 279.763 38.6327C281.215 38.6327 282.576 38.4555 283.849 38.1009C285.158 37.711 286.219 37.2678 287.032 36.7715C287.599 37.1261 288.076 37.6224 288.465 38.2605C288.855 38.8986 289.049 39.5722 289.049 40.2812C289.049 41.8765 288.306 43.064 286.82 43.844C285.689 44.4466 284.415 44.8544 283 45.0671C281.586 45.2798 280.26 45.3861 279.021 45.3861ZM277.535 24.4878C276.686 24.4878 275.943 24.6296 275.307 24.9132C274.706 25.1967 274.211 25.569 273.821 26.0299C273.432 26.4553 273.131 26.9516 272.919 27.5188C272.743 28.0506 272.636 28.6 272.601 29.1673L281.674 27.6784C281.567 26.9694 281.179 26.2603 280.506 25.5513C279.835 24.8423 278.844 24.4878 277.535 24.4878ZM151.745 91.0647C152.24 91.2066 152.877 91.3129 153.656 91.3838C154.434 91.4193 155.177 91.437 155.884 91.437C157.299 91.437 158.467 91.1534 159.386 90.5861C160.341 89.9835 160.818 89.0617 160.818 87.8209C160.818 86.6511 160.43 85.8179 159.651 85.3217C158.872 84.8254 157.688 84.5772 156.096 84.5772H151.745V91.0647ZM151.745 78.0897H155.619C157.14 78.0897 158.236 77.8061 158.908 77.2388C159.615 76.6716 159.969 75.8386 159.969 74.7395C159.969 73.7824 159.562 73.0202 158.749 72.4529C157.97 71.8857 156.786 71.6021 155.194 71.6021C154.664 71.6021 154.044 71.6198 153.337 71.6553C152.665 71.6908 152.134 71.744 151.745 71.8148V78.0897ZM155.194 98.5626C154.593 98.5626 153.885 98.5449 153.072 98.5094C152.259 98.4739 151.41 98.4031 150.525 98.2967C149.676 98.1904 148.827 98.0485 147.978 97.8713C147.129 97.7295 146.351 97.5168 145.644 97.2332C143.698 96.4887 142.726 95.1948 142.726 93.3513V68.5179C142.726 67.7734 142.921 67.2062 143.309 66.8162C143.734 66.3908 144.3 66.0541 145.007 65.8059C146.21 65.3805 147.713 65.0791 149.517 64.9019C151.321 64.6892 153.178 64.5828 155.088 64.5828C159.615 64.5828 163.1 65.345 165.54 66.8694C167.981 68.3939 169.201 70.7513 169.201 73.9419C169.201 75.5372 168.741 76.9198 167.822 78.0897C166.903 79.224 165.664 80.0572 164.108 80.5889C165.876 81.0852 167.344 81.9892 168.512 83.3009C169.715 84.6127 170.316 86.2611 170.316 88.2464C170.316 91.756 169.007 94.3617 166.389 96.0633C163.807 97.7295 160.076 98.5626 155.194 98.5626ZM200.357 84.7899C200.357 86.9878 200.021 88.9553 199.349 90.6925C198.678 92.3941 197.723 93.8299 196.484 94.9998C195.282 96.1697 193.831 97.056 192.133 97.6586C190.435 98.2612 188.544 98.5626 186.456 98.5626C184.369 98.5626 182.477 98.2435 180.779 97.6054C179.081 96.9673 177.614 96.0633 176.375 94.8934C175.173 93.688 174.235 92.2346 173.563 90.5329C172.892 88.8313 172.555 86.9169 172.555 84.7899C172.555 82.6983 172.892 80.8017 173.563 79.1C174.235 77.3984 175.173 75.9626 176.375 74.7927C177.614 73.5873 179.081 72.6657 180.779 72.0275C182.477 71.3894 184.369 71.0704 186.456 71.0704C188.544 71.0704 190.435 71.4071 192.133 72.0807C193.831 72.7188 195.282 73.6405 196.484 74.8459C197.723 76.0158 198.678 77.4515 199.349 79.1532C200.021 80.8548 200.357 82.7337 200.357 84.7899ZM181.787 84.7899C181.787 86.9524 182.194 88.6186 183.007 89.7885C183.856 90.9229 185.023 91.4901 186.509 91.4901C187.995 91.4901 189.127 90.9052 189.905 89.7353C190.719 88.5654 191.125 86.9169 191.125 84.7899C191.125 82.6628 190.719 81.032 189.905 79.8977C189.092 78.7278 187.942 78.1428 186.456 78.1428C184.97 78.1428 183.822 78.7278 183.007 79.8977C182.194 81.032 181.787 82.6628 181.787 84.7899ZM230.385 84.7899C230.385 86.9878 230.05 88.9553 229.377 90.6925C228.705 92.3941 227.75 93.8299 226.512 94.9998C225.309 96.1697 223.859 97.056 222.161 97.6586C220.463 98.2612 218.57 98.5626 216.484 98.5626C214.397 98.5626 212.505 98.2435 210.807 97.6054C209.109 96.9673 207.641 96.0633 206.403 94.8934C205.2 93.688 204.263 92.2346 203.591 90.5329C202.918 88.8313 202.583 86.9169 202.583 84.7899C202.583 82.6983 202.918 80.8017 203.591 79.1C204.263 77.3984 205.2 75.9626 206.403 74.7927C207.641 73.5873 209.109 72.6657 210.807 72.0275C212.505 71.3894 214.397 71.0704 216.484 71.0704C218.57 71.0704 220.463 71.4071 222.161 72.0807C223.859 72.7188 225.309 73.6405 226.512 74.8459C227.75 76.0158 228.705 77.4515 229.377 79.1532C230.05 80.8548 230.385 82.7337 230.385 84.7899ZM211.815 84.7899C211.815 86.9524 212.222 88.6186 213.035 89.7885C213.884 90.9229 215.051 91.4901 216.537 91.4901C218.023 91.4901 219.154 90.9052 219.933 89.7353C220.746 88.5654 221.153 86.9169 221.153 84.7899C221.153 82.6628 220.746 81.032 219.933 79.8977C219.12 78.7278 217.97 78.1428 216.484 78.1428C214.998 78.1428 213.848 78.7278 213.035 79.8977C212.222 81.032 211.815 82.6628 211.815 84.7899ZM258.926 93.0322C258.75 94.6984 258.255 95.9746 257.441 96.861C256.663 97.7473 255.513 98.1904 253.992 98.1904C252.86 98.1904 251.852 97.9245 250.968 97.3927C250.084 96.8255 249.129 95.8861 248.102 94.5744L242.85 87.9805V97.6586C242.461 97.7295 241.877 97.8181 241.099 97.9245C240.356 98.0663 239.596 98.1372 238.817 98.1372C238.04 98.1372 237.332 98.084 236.695 97.9777C236.094 97.8713 235.581 97.6586 235.156 97.3395C234.732 97.0205 234.396 96.5951 234.148 96.0633C233.936 95.496 233.83 94.7694 233.83 93.8831V63.0939C234.22 62.9875 234.785 62.8812 235.528 62.7748C236.306 62.633 237.085 62.5621 237.862 62.5621C238.641 62.5621 239.331 62.6153 239.932 62.7217C240.568 62.828 241.099 63.0407 241.523 63.3598C241.948 63.6788 242.266 64.1219 242.478 64.6892C242.726 65.2209 242.85 65.9299 242.85 66.8162V80.8548L251.976 71.4958C253.815 71.4958 255.284 71.9035 256.38 72.7188C257.512 73.5342 258.077 74.5623 258.077 75.8031C258.077 76.3348 257.99 76.8311 257.812 77.292C257.636 77.7174 257.353 78.1605 256.963 78.6214C256.61 79.0823 256.133 79.5786 255.531 80.1104C254.966 80.6066 254.293 81.1916 253.514 81.8652L250.437 84.524L258.926 93.0322Z" fill="black"/>
</svg>
